<mxfile host="Electron" modified="2024-02-02T20:34:53.602Z" agent="Mozilla/5.0 (Windows NT 10.0; Win64; x64) AppleWebKit/537.36 (KHTML, like Gecko) draw.io/23.0.2 Chrome/120.0.6099.109 Electron/28.1.0 Safari/537.36" etag="GiwE9OKcq6UZApUrACjp" version="23.0.2" type="device">
  <diagram name="ページ1" id="LE8fIzdrHe0wcv1LTvfw">
    <mxGraphModel dx="2165" dy="1295" grid="1" gridSize="10" guides="1" tooltips="1" connect="1" arrows="1" fold="1" page="1" pageScale="1" pageWidth="1600" pageHeight="1200" math="0" shadow="0">
      <root>
        <mxCell id="0" />
        <mxCell id="cFaB45KztUIKXS-_cTrr-4" value="背景" style="locked=1;" parent="0" visible="0" />
        <mxCell id="cFaB45KztUIKXS-_cTrr-5" value="" style="rounded=0;whiteSpace=wrap;html=1;strokeWidth=3;" parent="cFaB45KztUIKXS-_cTrr-4" vertex="1">
          <mxGeometry x="1" y="1" width="1595" height="1180" as="geometry" />
        </mxCell>
        <mxCell id="cFaB45KztUIKXS-_cTrr-6" value="" style="rounded=0;whiteSpace=wrap;html=1;fillColor=#B3B3B3;fontColor=#333333;strokeColor=#666666;" parent="cFaB45KztUIKXS-_cTrr-4" vertex="1">
          <mxGeometry width="1595" height="60" as="geometry" />
        </mxCell>
        <mxCell id="cFaB45KztUIKXS-_cTrr-7" value="&lt;font style=&quot;font-size: 48px;&quot;&gt;×&lt;/font&gt;" style="rounded=0;whiteSpace=wrap;html=1;" parent="cFaB45KztUIKXS-_cTrr-4" vertex="1">
          <mxGeometry x="1550" y="10" width="40" height="40" as="geometry" />
        </mxCell>
        <mxCell id="cFaB45KztUIKXS-_cTrr-8" value="" style="rounded=0;whiteSpace=wrap;html=1;" parent="cFaB45KztUIKXS-_cTrr-4" vertex="1">
          <mxGeometry x="830" y="670" width="120" height="60" as="geometry" />
        </mxCell>
        <mxCell id="cFaB45KztUIKXS-_cTrr-9" value="ウインドウ" style="" parent="0" />
        <mxCell id="cFaB45KztUIKXS-_cTrr-10" value="" style="rounded=0;whiteSpace=wrap;html=1;strokeWidth=3;" parent="cFaB45KztUIKXS-_cTrr-9" vertex="1">
          <mxGeometry x="1" y="1" width="1595" height="1299" as="geometry" />
        </mxCell>
        <mxCell id="cFaB45KztUIKXS-_cTrr-11" value="" style="rounded=0;whiteSpace=wrap;html=1;fillColor=#B3B3B3;fontColor=#333333;strokeColor=#666666;" parent="cFaB45KztUIKXS-_cTrr-9" vertex="1">
          <mxGeometry width="1595" height="60" as="geometry" />
        </mxCell>
        <mxCell id="cFaB45KztUIKXS-_cTrr-12" value="&lt;font style=&quot;font-size: 48px;&quot;&gt;×&lt;/font&gt;" style="rounded=0;whiteSpace=wrap;html=1;" parent="cFaB45KztUIKXS-_cTrr-9" vertex="1">
          <mxGeometry x="1550" y="10" width="40" height="40" as="geometry" />
        </mxCell>
        <mxCell id="cFaB45KztUIKXS-_cTrr-14" value="名称未設定レイヤ" style="" parent="0" />
        <mxCell id="bMRDDl92_SAq192Mb1gc-10" value="&lt;span style=&quot;font-size: 30px;&quot;&gt;氏名&lt;/span&gt;" style="rounded=0;whiteSpace=wrap;html=1;align=right;dashed=1;dashPattern=8 8;verticalAlign=bottom;" parent="cFaB45KztUIKXS-_cTrr-14" vertex="1">
          <mxGeometry x="100" y="127" width="290" height="46" as="geometry" />
        </mxCell>
        <mxCell id="bMRDDl92_SAq192Mb1gc-16" value="&lt;span style=&quot;font-size: 30px;&quot;&gt;&lt;b&gt;政治資金収支報告書で表示される項目&lt;/b&gt;&lt;/span&gt;" style="rounded=0;whiteSpace=wrap;html=1;align=left;dashed=1;dashPattern=8 8;verticalAlign=bottom;" parent="cFaB45KztUIKXS-_cTrr-14" vertex="1">
          <mxGeometry x="40" y="67" width="890" height="46" as="geometry" />
        </mxCell>
        <mxCell id="bMRDDl92_SAq192Mb1gc-17" value="&lt;span style=&quot;font-size: 30px;&quot;&gt;政治団体&lt;/span&gt;" style="rounded=0;whiteSpace=wrap;html=1;align=left;fillColor=#CCCCCC;" parent="cFaB45KztUIKXS-_cTrr-14" vertex="1">
          <mxGeometry x="410" y="129" width="250" height="48" as="geometry" />
        </mxCell>
        <mxCell id="bMRDDl92_SAq192Mb1gc-18" value="&lt;span style=&quot;font-size: 30px;&quot;&gt;マリオ太郎&lt;/span&gt;" style="rounded=0;whiteSpace=wrap;html=1;align=left;fillColor=#CCCCCC;" parent="cFaB45KztUIKXS-_cTrr-14" vertex="1">
          <mxGeometry x="740" y="129" width="250" height="48" as="geometry" />
        </mxCell>
        <mxCell id="bMRDDl92_SAq192Mb1gc-19" value="&lt;span style=&quot;font-size: 30px;&quot;&gt;(姓)&lt;/span&gt;" style="rounded=0;whiteSpace=wrap;html=1;align=right;dashed=1;dashPattern=8 8;verticalAlign=bottom;" parent="cFaB45KztUIKXS-_cTrr-14" vertex="1">
          <mxGeometry x="664" y="130" width="50" height="46" as="geometry" />
        </mxCell>
        <mxCell id="bMRDDl92_SAq192Mb1gc-20" value="&lt;span style=&quot;font-size: 30px;&quot;&gt;(名)&lt;/span&gt;" style="rounded=0;whiteSpace=wrap;html=1;align=right;dashed=1;dashPattern=8 8;verticalAlign=bottom;" parent="cFaB45KztUIKXS-_cTrr-14" vertex="1">
          <mxGeometry x="994" y="130" width="50" height="46" as="geometry" />
        </mxCell>
        <mxCell id="bMRDDl92_SAq192Mb1gc-21" value="&lt;font style=&quot;font-size: 30px;&quot;&gt;0123&lt;/font&gt;" style="rounded=0;whiteSpace=wrap;html=1;align=right;fillColor=#CCCCCC;" parent="cFaB45KztUIKXS-_cTrr-14" vertex="1">
          <mxGeometry x="407" y="194" width="170" height="48" as="geometry" />
        </mxCell>
        <mxCell id="bMRDDl92_SAq192Mb1gc-22" value="&lt;span style=&quot;font-size: 30px;&quot;&gt;電話番号&lt;/span&gt;" style="rounded=0;whiteSpace=wrap;html=1;align=right;dashed=1;dashPattern=8 8;verticalAlign=bottom;" parent="cFaB45KztUIKXS-_cTrr-14" vertex="1">
          <mxGeometry x="77" y="196" width="310" height="46" as="geometry" />
        </mxCell>
        <mxCell id="bMRDDl92_SAq192Mb1gc-23" value="&lt;span style=&quot;font-size: 30px;&quot;&gt;45&lt;br&gt;&lt;/span&gt;" style="rounded=0;whiteSpace=wrap;html=1;align=right;fillColor=#CCCCCC;" parent="cFaB45KztUIKXS-_cTrr-14" vertex="1">
          <mxGeometry x="637" y="194" width="170" height="48" as="geometry" />
        </mxCell>
        <mxCell id="bMRDDl92_SAq192Mb1gc-24" value="&lt;span style=&quot;font-size: 30px;&quot;&gt;－&lt;/span&gt;" style="rounded=0;whiteSpace=wrap;html=1;align=right;dashed=1;dashPattern=8 8;verticalAlign=bottom;" parent="cFaB45KztUIKXS-_cTrr-14" vertex="1">
          <mxGeometry x="588" y="196" width="40" height="46" as="geometry" />
        </mxCell>
        <mxCell id="bMRDDl92_SAq192Mb1gc-25" value="&lt;span style=&quot;font-size: 30px;&quot;&gt;678z&lt;br&gt;&lt;/span&gt;" style="rounded=0;whiteSpace=wrap;html=1;align=right;fillColor=#CCCCCC;" parent="cFaB45KztUIKXS-_cTrr-14" vertex="1">
          <mxGeometry x="877" y="194" width="170" height="48" as="geometry" />
        </mxCell>
        <mxCell id="bMRDDl92_SAq192Mb1gc-26" value="&lt;span style=&quot;font-size: 30px;&quot;&gt;－&lt;/span&gt;" style="rounded=0;whiteSpace=wrap;html=1;align=right;dashed=1;dashPattern=8 8;verticalAlign=bottom;" parent="cFaB45KztUIKXS-_cTrr-14" vertex="1">
          <mxGeometry x="828" y="196" width="40" height="46" as="geometry" />
        </mxCell>
        <mxCell id="Fa45Nr03g6_gKb-Np0pS-0" value="" style="endArrow=none;html=1;rounded=0;strokeWidth=3;endSize=0;startSize=0;" parent="cFaB45KztUIKXS-_cTrr-14" edge="1">
          <mxGeometry width="50" height="50" relative="1" as="geometry">
            <mxPoint x="60" y="270" as="sourcePoint" />
            <mxPoint x="1535" y="260" as="targetPoint" />
          </mxGeometry>
        </mxCell>
        <mxCell id="Fa45Nr03g6_gKb-Np0pS-1" value="&lt;span style=&quot;font-size: 30px;&quot;&gt;&lt;b&gt;事務担当者1の入力項目(システム利用に必要な項目含む)&lt;/b&gt;&lt;/span&gt;" style="rounded=0;whiteSpace=wrap;html=1;align=left;dashed=1;dashPattern=8 8;verticalAlign=bottom;" parent="cFaB45KztUIKXS-_cTrr-14" vertex="1">
          <mxGeometry x="40" y="307" width="810" height="46" as="geometry" />
        </mxCell>
        <mxCell id="Fa45Nr03g6_gKb-Np0pS-2" value="&lt;span style=&quot;font-size: 30px;&quot;&gt;住所(郵便番号)&lt;/span&gt;" style="rounded=0;whiteSpace=wrap;html=1;align=right;dashed=1;dashPattern=8 8;verticalAlign=bottom;" parent="cFaB45KztUIKXS-_cTrr-14" vertex="1">
          <mxGeometry x="80" y="904" width="310" height="46" as="geometry" />
        </mxCell>
        <mxCell id="Fa45Nr03g6_gKb-Np0pS-3" value="&lt;span style=&quot;font-size: 30px;&quot;&gt;番地&lt;/span&gt;" style="rounded=0;whiteSpace=wrap;html=1;align=right;dashed=1;dashPattern=8 8;verticalAlign=bottom;" parent="cFaB45KztUIKXS-_cTrr-14" vertex="1">
          <mxGeometry x="80" y="967" width="310" height="46" as="geometry" />
        </mxCell>
        <mxCell id="Fa45Nr03g6_gKb-Np0pS-4" value="&lt;span style=&quot;font-size: 30px;&quot;&gt;建物&lt;/span&gt;" style="rounded=0;whiteSpace=wrap;html=1;align=right;dashed=1;dashPattern=8 8;verticalAlign=bottom;" parent="cFaB45KztUIKXS-_cTrr-14" vertex="1">
          <mxGeometry x="80" y="1029" width="310" height="46" as="geometry" />
        </mxCell>
        <mxCell id="Fa45Nr03g6_gKb-Np0pS-5" value="&lt;span style=&quot;font-size: 30px;&quot;&gt;東京都千代田区霞ケ浦&lt;/span&gt;" style="rounded=0;whiteSpace=wrap;html=1;align=left;fillColor=#CCCCCC;" parent="cFaB45KztUIKXS-_cTrr-14" vertex="1">
          <mxGeometry x="410" y="903" width="550" height="48" as="geometry" />
        </mxCell>
        <mxCell id="Fa45Nr03g6_gKb-Np0pS-6" value="&lt;span style=&quot;font-size: 30px;&quot;&gt;x丁目y番地&lt;/span&gt;" style="rounded=0;whiteSpace=wrap;html=1;align=left;fillColor=#CCCCCC;" parent="cFaB45KztUIKXS-_cTrr-14" vertex="1">
          <mxGeometry x="410" y="969" width="550" height="48" as="geometry" />
        </mxCell>
        <mxCell id="Fa45Nr03g6_gKb-Np0pS-7" value="&lt;span style=&quot;font-size: 30px;&quot;&gt;zzzabcビル3Fqqq号室&lt;/span&gt;" style="rounded=0;whiteSpace=wrap;html=1;align=left;fillColor=#CCCCCC;" parent="cFaB45KztUIKXS-_cTrr-14" vertex="1">
          <mxGeometry x="410" y="1031" width="550" height="48" as="geometry" />
        </mxCell>
        <mxCell id="Fa45Nr03g6_gKb-Np0pS-8" value="&lt;span style=&quot;font-size: 30px;&quot;&gt;氏名&lt;/span&gt;" style="rounded=0;whiteSpace=wrap;html=1;align=right;dashed=1;dashPattern=8 8;verticalAlign=bottom;" parent="cFaB45KztUIKXS-_cTrr-14" vertex="1">
          <mxGeometry x="90" y="367" width="290" height="46" as="geometry" />
        </mxCell>
        <mxCell id="Fa45Nr03g6_gKb-Np0pS-9" value="&lt;span style=&quot;font-size: 30px;&quot;&gt;政治団体&lt;/span&gt;" style="rounded=0;whiteSpace=wrap;html=1;align=left;fillColor=#FFFFFF;" parent="cFaB45KztUIKXS-_cTrr-14" vertex="1">
          <mxGeometry x="400" y="369" width="230" height="48" as="geometry" />
        </mxCell>
        <mxCell id="Fa45Nr03g6_gKb-Np0pS-10" value="&lt;span style=&quot;font-size: 30px;&quot;&gt;太郎&lt;/span&gt;" style="rounded=0;whiteSpace=wrap;html=1;align=left;" parent="cFaB45KztUIKXS-_cTrr-14" vertex="1">
          <mxGeometry x="730" y="369" width="210" height="48" as="geometry" />
        </mxCell>
        <mxCell id="Fa45Nr03g6_gKb-Np0pS-11" value="&lt;span style=&quot;font-size: 30px;&quot;&gt;(姓)&lt;/span&gt;" style="rounded=0;whiteSpace=wrap;html=1;align=right;dashed=1;dashPattern=8 8;verticalAlign=bottom;" parent="cFaB45KztUIKXS-_cTrr-14" vertex="1">
          <mxGeometry x="634" y="370" width="50" height="46" as="geometry" />
        </mxCell>
        <mxCell id="Fa45Nr03g6_gKb-Np0pS-12" value="&lt;span style=&quot;font-size: 30px;&quot;&gt;(名)&lt;/span&gt;" style="rounded=0;whiteSpace=wrap;html=1;align=right;dashed=1;dashPattern=8 8;verticalAlign=bottom;" parent="cFaB45KztUIKXS-_cTrr-14" vertex="1">
          <mxGeometry x="944" y="370" width="50" height="46" as="geometry" />
        </mxCell>
        <mxCell id="Fa45Nr03g6_gKb-Np0pS-13" value="&lt;span style=&quot;font-size: 30px;&quot;&gt;ふりがな&lt;/span&gt;" style="rounded=0;whiteSpace=wrap;html=1;align=right;dashed=1;dashPattern=8 8;verticalAlign=bottom;" parent="cFaB45KztUIKXS-_cTrr-14" vertex="1">
          <mxGeometry x="90" y="427" width="290" height="46" as="geometry" />
        </mxCell>
        <mxCell id="Fa45Nr03g6_gKb-Np0pS-14" value="&lt;span style=&quot;font-size: 30px;&quot;&gt;せいじだんたい&lt;/span&gt;" style="rounded=0;whiteSpace=wrap;html=1;align=left;" parent="cFaB45KztUIKXS-_cTrr-14" vertex="1">
          <mxGeometry x="400" y="429" width="230" height="48" as="geometry" />
        </mxCell>
        <mxCell id="Fa45Nr03g6_gKb-Np0pS-15" value="&lt;span style=&quot;font-size: 30px;&quot;&gt;たろう&lt;/span&gt;" style="rounded=0;whiteSpace=wrap;html=1;align=left;" parent="cFaB45KztUIKXS-_cTrr-14" vertex="1">
          <mxGeometry x="730" y="429" width="210" height="48" as="geometry" />
        </mxCell>
        <mxCell id="Fa45Nr03g6_gKb-Np0pS-16" value="&lt;span style=&quot;font-size: 30px;&quot;&gt;(姓)&lt;/span&gt;" style="rounded=0;whiteSpace=wrap;html=1;align=right;dashed=1;dashPattern=8 8;verticalAlign=bottom;" parent="cFaB45KztUIKXS-_cTrr-14" vertex="1">
          <mxGeometry x="634" y="430" width="50" height="46" as="geometry" />
        </mxCell>
        <mxCell id="Fa45Nr03g6_gKb-Np0pS-17" value="&lt;span style=&quot;font-size: 30px;&quot;&gt;(名)&lt;/span&gt;" style="rounded=0;whiteSpace=wrap;html=1;align=right;dashed=1;dashPattern=8 8;verticalAlign=bottom;" parent="cFaB45KztUIKXS-_cTrr-14" vertex="1">
          <mxGeometry x="944" y="430" width="50" height="46" as="geometry" />
        </mxCell>
        <mxCell id="Fa45Nr03g6_gKb-Np0pS-25" value="&lt;span style=&quot;font-size: 30px;&quot;&gt;マリオ&lt;/span&gt;" style="rounded=0;whiteSpace=wrap;html=1;align=left;" parent="cFaB45KztUIKXS-_cTrr-14" vertex="1">
          <mxGeometry x="1020" y="369" width="210" height="48" as="geometry" />
        </mxCell>
        <mxCell id="Fa45Nr03g6_gKb-Np0pS-26" value="&lt;span style=&quot;font-size: 30px;&quot;&gt;(ミドルネーム)&lt;/span&gt;" style="rounded=0;whiteSpace=wrap;html=1;align=right;dashed=1;dashPattern=8 8;verticalAlign=bottom;" parent="cFaB45KztUIKXS-_cTrr-14" vertex="1">
          <mxGeometry x="1234" y="370" width="206" height="46" as="geometry" />
        </mxCell>
        <mxCell id="Fa45Nr03g6_gKb-Np0pS-27" value="&lt;span style=&quot;font-size: 30px;&quot;&gt;まりお&lt;/span&gt;" style="rounded=0;whiteSpace=wrap;html=1;align=left;" parent="cFaB45KztUIKXS-_cTrr-14" vertex="1">
          <mxGeometry x="1020" y="429" width="210" height="48" as="geometry" />
        </mxCell>
        <mxCell id="Fa45Nr03g6_gKb-Np0pS-29" value="&lt;span style=&quot;font-size: 30px;&quot;&gt;(ミドルネーム)&lt;/span&gt;" style="rounded=0;whiteSpace=wrap;html=1;align=right;dashed=1;dashPattern=8 8;verticalAlign=bottom;" parent="cFaB45KztUIKXS-_cTrr-14" vertex="1">
          <mxGeometry x="1234" y="428" width="206" height="46" as="geometry" />
        </mxCell>
        <mxCell id="Fa45Nr03g6_gKb-Np0pS-30" value="&lt;span style=&quot;font-size: 30px;&quot;&gt;住所&lt;/span&gt;" style="rounded=0;whiteSpace=wrap;html=1;align=right;dashed=1;dashPattern=8 8;verticalAlign=bottom;" parent="cFaB45KztUIKXS-_cTrr-14" vertex="1">
          <mxGeometry x="76" y="777" width="310" height="46" as="geometry" />
        </mxCell>
        <mxCell id="Fa45Nr03g6_gKb-Np0pS-31" value="&lt;span style=&quot;font-size: 30px;&quot;&gt;123&lt;br&gt;&lt;/span&gt;" style="rounded=0;whiteSpace=wrap;html=1;align=right;fillColor=#CCCCCC;" parent="cFaB45KztUIKXS-_cTrr-14" vertex="1">
          <mxGeometry x="410" y="834" width="170" height="48" as="geometry" />
        </mxCell>
        <mxCell id="Fa45Nr03g6_gKb-Np0pS-32" value="&lt;span style=&quot;font-size: 30px;&quot;&gt;郵便番号&lt;/span&gt;" style="rounded=0;whiteSpace=wrap;html=1;align=right;dashed=1;dashPattern=8 8;verticalAlign=bottom;" parent="cFaB45KztUIKXS-_cTrr-14" vertex="1">
          <mxGeometry x="80" y="836" width="310" height="46" as="geometry" />
        </mxCell>
        <mxCell id="Fa45Nr03g6_gKb-Np0pS-33" value="&lt;span style=&quot;font-size: 30px;&quot;&gt;456x&lt;br&gt;&lt;/span&gt;" style="rounded=0;whiteSpace=wrap;html=1;align=right;fillColor=#CCCCCC;" parent="cFaB45KztUIKXS-_cTrr-14" vertex="1">
          <mxGeometry x="640" y="834" width="170" height="48" as="geometry" />
        </mxCell>
        <mxCell id="Fa45Nr03g6_gKb-Np0pS-34" value="&lt;font style=&quot;font-size: 30px;&quot;&gt;0123&lt;/font&gt;" style="rounded=0;whiteSpace=wrap;html=1;align=right;" parent="cFaB45KztUIKXS-_cTrr-14" vertex="1">
          <mxGeometry x="407" y="494" width="170" height="48" as="geometry" />
        </mxCell>
        <mxCell id="Fa45Nr03g6_gKb-Np0pS-35" value="&lt;span style=&quot;font-size: 30px;&quot;&gt;電話番号&lt;/span&gt;" style="rounded=0;whiteSpace=wrap;html=1;align=right;dashed=1;dashPattern=8 8;verticalAlign=bottom;" parent="cFaB45KztUIKXS-_cTrr-14" vertex="1">
          <mxGeometry x="77" y="496" width="310" height="46" as="geometry" />
        </mxCell>
        <mxCell id="Fa45Nr03g6_gKb-Np0pS-36" value="&lt;span style=&quot;font-size: 30px;&quot;&gt;45&lt;br&gt;&lt;/span&gt;" style="rounded=0;whiteSpace=wrap;html=1;align=right;" parent="cFaB45KztUIKXS-_cTrr-14" vertex="1">
          <mxGeometry x="637" y="494" width="170" height="48" as="geometry" />
        </mxCell>
        <mxCell id="Fa45Nr03g6_gKb-Np0pS-37" value="&lt;span style=&quot;font-size: 30px;&quot;&gt;－&lt;/span&gt;" style="rounded=0;whiteSpace=wrap;html=1;align=right;dashed=1;dashPattern=8 8;verticalAlign=bottom;" parent="cFaB45KztUIKXS-_cTrr-14" vertex="1">
          <mxGeometry x="588" y="496" width="40" height="46" as="geometry" />
        </mxCell>
        <mxCell id="Fa45Nr03g6_gKb-Np0pS-38" value="&lt;span style=&quot;font-size: 30px;&quot;&gt;678z&lt;br&gt;&lt;/span&gt;" style="rounded=0;whiteSpace=wrap;html=1;align=right;fillColor=#FFFFFF;" parent="cFaB45KztUIKXS-_cTrr-14" vertex="1">
          <mxGeometry x="877" y="494" width="170" height="48" as="geometry" />
        </mxCell>
        <mxCell id="Fa45Nr03g6_gKb-Np0pS-39" value="&lt;span style=&quot;font-size: 30px;&quot;&gt;－&lt;/span&gt;" style="rounded=0;whiteSpace=wrap;html=1;align=right;dashed=1;dashPattern=8 8;verticalAlign=bottom;" parent="cFaB45KztUIKXS-_cTrr-14" vertex="1">
          <mxGeometry x="828" y="496" width="40" height="46" as="geometry" />
        </mxCell>
        <mxCell id="Fa45Nr03g6_gKb-Np0pS-40" value="&lt;span style=&quot;font-size: 30px;&quot;&gt;送信&lt;/span&gt;" style="rounded=1;whiteSpace=wrap;html=1;" parent="cFaB45KztUIKXS-_cTrr-14" vertex="1">
          <mxGeometry x="1343" y="1170" width="210" height="60" as="geometry" />
        </mxCell>
        <mxCell id="Fa45Nr03g6_gKb-Np0pS-41" value="&lt;span style=&quot;font-size: 30px;&quot;&gt;キャンセル&lt;/span&gt;" style="rounded=1;whiteSpace=wrap;html=1;" parent="cFaB45KztUIKXS-_cTrr-14" vertex="1">
          <mxGeometry x="1093" y="1170" width="210" height="60" as="geometry" />
        </mxCell>
        <mxCell id="Fa45Nr03g6_gKb-Np0pS-42" value="&lt;span style=&quot;font-size: 30px;&quot;&gt;メール&lt;/span&gt;" style="rounded=0;whiteSpace=wrap;html=1;align=right;dashed=1;dashPattern=8 8;verticalAlign=bottom;" parent="cFaB45KztUIKXS-_cTrr-14" vertex="1">
          <mxGeometry x="78" y="559" width="310" height="46" as="geometry" />
        </mxCell>
        <mxCell id="Fa45Nr03g6_gKb-Np0pS-43" value="&lt;span style=&quot;font-size: 30px;&quot;&gt;ffffggg@iii-kkk-lll.co.jp&lt;/span&gt;" style="rounded=0;whiteSpace=wrap;html=1;align=left;" parent="cFaB45KztUIKXS-_cTrr-14" vertex="1">
          <mxGeometry x="408" y="561" width="550" height="48" as="geometry" />
        </mxCell>
        <mxCell id="Fa45Nr03g6_gKb-Np0pS-44" value="&lt;span style=&quot;font-size: 30px;&quot;&gt;DM用SNS&lt;/span&gt;" style="rounded=0;whiteSpace=wrap;html=1;align=right;dashed=1;dashPattern=8 8;verticalAlign=bottom;" parent="cFaB45KztUIKXS-_cTrr-14" vertex="1">
          <mxGeometry x="78" y="619" width="310" height="46" as="geometry" />
        </mxCell>
        <mxCell id="Fa45Nr03g6_gKb-Np0pS-45" value="&lt;span style=&quot;font-size: 30px;&quot;&gt;@fff_ggg&lt;/span&gt;" style="rounded=0;whiteSpace=wrap;html=1;align=left;" parent="cFaB45KztUIKXS-_cTrr-14" vertex="1">
          <mxGeometry x="408" y="621" width="550" height="48" as="geometry" />
        </mxCell>
        <mxCell id="Fa45Nr03g6_gKb-Np0pS-46" value="&lt;span style=&quot;font-size: 30px;&quot;&gt;▼X(Twitter)&lt;/span&gt;" style="rounded=0;whiteSpace=wrap;html=1;align=left;" parent="cFaB45KztUIKXS-_cTrr-14" vertex="1">
          <mxGeometry x="988" y="621" width="230" height="48" as="geometry" />
        </mxCell>
        <mxCell id="Fa45Nr03g6_gKb-Np0pS-47" value="&lt;span style=&quot;font-size: 30px;&quot;&gt;生年月日&lt;/span&gt;" style="rounded=0;whiteSpace=wrap;html=1;align=right;dashed=1;dashPattern=8 8;verticalAlign=bottom;" parent="cFaB45KztUIKXS-_cTrr-14" vertex="1">
          <mxGeometry x="80" y="1100" width="310" height="46" as="geometry" />
        </mxCell>
        <mxCell id="Fa45Nr03g6_gKb-Np0pS-48" value="&lt;font style=&quot;font-size: 30px;&quot;&gt;20221201&lt;/font&gt;" style="rounded=0;whiteSpace=wrap;html=1;align=right;fillColor=#CCCCCC;" parent="cFaB45KztUIKXS-_cTrr-14" vertex="1">
          <mxGeometry x="410" y="1098" width="250" height="48" as="geometry" />
        </mxCell>
        <mxCell id="Elh6aSJ368F5YAedYCY9-0" value="&lt;span style=&quot;font-size: 30px;&quot;&gt;☑利便性向上のために個人情報の取り扱いに同意して入力する登録完了後の本人以外は入力を有効にできません&lt;/span&gt;" style="rounded=0;whiteSpace=wrap;html=1;align=left;dashed=1;dashPattern=8 8;verticalAlign=bottom;" vertex="1" parent="cFaB45KztUIKXS-_cTrr-14">
          <mxGeometry x="404" y="688" width="846" height="82" as="geometry" />
        </mxCell>
      </root>
    </mxGraphModel>
  </diagram>
</mxfile>
